<svg xmlns="http://www.w3.org/2000/svg" viewBox="0 0 64 64">
  <defs>
    <linearGradient id="g" x1="0%" y1="0%" x2="100%" y2="100%">
      <stop offset="0%" stop-color="#10b981"/>
      <stop offset="100%" stop-color="#3b82f6"/>
    </linearGradient>
  </defs>
  <circle cx="32" cy="32" r="30" fill="#0a0e17" stroke="url(#g)" stroke-width="2"/>
  <ellipse cx="32" cy="32" rx="20" ry="20" fill="none" stroke="url(#g)" stroke-width="1.5" opacity="0.3"/>
  <ellipse cx="32" cy="32" rx="20" ry="10" fill="none" stroke="url(#g)" stroke-width="1.2" opacity="0.4"/>
  <ellipse cx="32" cy="32" rx="10" ry="20" fill="none" stroke="url(#g)" stroke-width="1.2" opacity="0.4" transform="rotate(30 32 32)"/>
  <ellipse cx="32" cy="32" rx="10" ry="20" fill="none" stroke="url(#g)" stroke-width="1.2" opacity="0.4" transform="rotate(-30 32 32)"/>
  <circle cx="32" cy="14" r="3" fill="#10b981"/>
  <circle cx="48" cy="26" r="2.5" fill="#10b981" opacity="0.9"/>
  <circle cx="46" cy="42" r="2.5" fill="#3b82f6" opacity="0.9"/>
  <circle cx="32" cy="50" r="3" fill="#3b82f6"/>
  <circle cx="18" cy="42" r="2.5" fill="#3b82f6" opacity="0.9"/>
  <circle cx="16" cy="26" r="2.5" fill="#10b981" opacity="0.9"/>
  <circle cx="32" cy="32" r="4" fill="url(#g)"/>
  <line x1="32" y1="14" x2="48" y2="26" stroke="#10b981" stroke-width="1" opacity="0.6"/>
  <line x1="48" y1="26" x2="46" y2="42" stroke="#10b981" stroke-width="1" opacity="0.5"/>
  <line x1="46" y1="42" x2="32" y2="50" stroke="#3b82f6" stroke-width="1" opacity="0.6"/>
  <line x1="32" y1="50" x2="18" y2="42" stroke="#3b82f6" stroke-width="1" opacity="0.5"/>
  <line x1="18" y1="42" x2="16" y2="26" stroke="#10b981" stroke-width="1" opacity="0.5"/>
  <line x1="16" y1="26" x2="32" y2="14" stroke="#10b981" stroke-width="1" opacity="0.6"/>
  <line x1="32" y1="32" x2="32" y2="14" stroke="url(#g)" stroke-width="1" opacity="0.4"/>
  <line x1="32" y1="32" x2="48" y2="26" stroke="url(#g)" stroke-width="1" opacity="0.4"/>
  <line x1="32" y1="32" x2="46" y2="42" stroke="url(#g)" stroke-width="1" opacity="0.4"/>
  <line x1="32" y1="32" x2="32" y2="50" stroke="url(#g)" stroke-width="1" opacity="0.4"/>
  <line x1="32" y1="32" x2="18" y2="42" stroke="url(#g)" stroke-width="1" opacity="0.4"/>
  <line x1="32" y1="32" x2="16" y2="26" stroke="url(#g)" stroke-width="1" opacity="0.4"/>
</svg>
