<svg xmlns="http://www.w3.org/2000/svg" viewBox="0 0 512 512">
  <defs>
    <linearGradient id="g" x1="0%" y1="0%" x2="100%" y2="100%">
      <stop offset="0%" stop-color="#10b981"/>
      <stop offset="100%" stop-color="#3b82f6"/>
    </linearGradient>
  </defs>
  <rect width="512" height="512" rx="96" fill="#0a0e17"/>
  <circle cx="256" cy="256" r="200" fill="none" stroke="url(#g)" stroke-width="8"/>
  <ellipse cx="256" cy="256" rx="160" ry="160" fill="none" stroke="url(#g)" stroke-width="6" opacity="0.3"/>
  <ellipse cx="256" cy="256" rx="160" ry="80" fill="none" stroke="url(#g)" stroke-width="5" opacity="0.4"/>
  <ellipse cx="256" cy="256" rx="80" ry="160" fill="none" stroke="url(#g)" stroke-width="5" opacity="0.4" transform="rotate(30 256 256)"/>
  <ellipse cx="256" cy="256" rx="80" ry="160" fill="none" stroke="url(#g)" stroke-width="5" opacity="0.4" transform="rotate(-30 256 256)"/>
  <circle cx="256" cy="112" r="24" fill="#10b981"/>
  <circle cx="384" cy="192" r="20" fill="#10b981" opacity="0.9"/>
  <circle cx="368" cy="336" r="20" fill="#3b82f6" opacity="0.9"/>
  <circle cx="256" cy="400" r="24" fill="#3b82f6"/>
  <circle cx="144" cy="336" r="20" fill="#3b82f6" opacity="0.9"/>
  <circle cx="128" cy="192" r="20" fill="#10b981" opacity="0.9"/>
  <circle cx="256" cy="256" r="32" fill="url(#g)"/>
  <line x1="256" y1="112" x2="384" y2="192" stroke="#10b981" stroke-width="4" opacity="0.6"/>
  <line x1="384" y1="192" x2="368" y2="336" stroke="#10b981" stroke-width="4" opacity="0.5"/>
  <line x1="368" y1="336" x2="256" y2="400" stroke="#3b82f6" stroke-width="4" opacity="0.6"/>
  <line x1="256" y1="400" x2="144" y2="336" stroke="#3b82f6" stroke-width="4" opacity="0.5"/>
  <line x1="144" y1="336" x2="128" y2="192" stroke="#10b981" stroke-width="4" opacity="0.5"/>
  <line x1="128" y1="192" x2="256" y2="112" stroke="#10b981" stroke-width="4" opacity="0.6"/>
  <line x1="256" y1="256" x2="256" y2="112" stroke="url(#g)" stroke-width="3" opacity="0.4"/>
  <line x1="256" y1="256" x2="384" y2="192" stroke="url(#g)" stroke-width="3" opacity="0.4"/>
  <line x1="256" y1="256" x2="368" y2="336" stroke="url(#g)" stroke-width="3" opacity="0.4"/>
  <line x1="256" y1="256" x2="256" y2="400" stroke="url(#g)" stroke-width="3" opacity="0.4"/>
  <line x1="256" y1="256" x2="144" y2="336" stroke="url(#g)" stroke-width="3" opacity="0.4"/>
  <line x1="256" y1="256" x2="128" y2="192" stroke="url(#g)" stroke-width="3" opacity="0.4"/>
</svg>
