<svg xmlns="http://www.w3.org/2000/svg" viewBox="0 0 64 64" fill="currentColor">
  <!-- Water surface -->
  <path d="M0 18c4-2 8-2 12 0s8 2 12 0 8-2 12 0 8 2 12 0 8-2 12 0 8 2 12 0" fill="none" stroke="currentColor" stroke-width="1.5" opacity="0.4"/>
  <path d="M0 22c4-1.5 8-1.5 12 0s8 1.5 12 0 8-1.5 12 0 8 1.5 12 0 8-1.5 12 0 8 1.5 12 0" fill="none" stroke="currentColor" stroke-width="1" opacity="0.25"/>
  <!-- Ocean depth gradient -->
  <rect x="0" y="20" width="64" height="44" opacity="0.08"/>
  <!-- Submarine cable - main line -->
  <path d="M2 14c4 8 8 18 14 26c6 8 12 12 16 14c4 2 12 0 16-2c4-2 8-6 14-14" fill="none" stroke="currentColor" stroke-width="4" stroke-linecap="round"/>
  <!-- Cable armor texture -->
  <path d="M2 14c4 8 8 18 14 26c6 8 12 12 16 14c4 2 12 0 16-2c4-2 8-6 14-14" fill="none" stroke="currentColor" stroke-width="5.5" stroke-linecap="round" opacity="0.2"/>
  <!-- Repeater/amplifier housings -->
  <circle cx="22" cy="38" r="3"/>
  <circle cx="22" cy="38" r="1.5" opacity="0.4" fill="#fff"/>
  <circle cx="42" cy="42" r="3"/>
  <circle cx="42" cy="42" r="1.5" opacity="0.4" fill="#fff"/>
  <!-- Landing points -->
  <rect x="0" y="10" width="6" height="8" rx="1"/>
  <rect x="1" y="12" width="1.5" height="1.5" rx="0.5" opacity="0.5" fill="#fff"/>
  <rect x="58" y="10" width="6" height="8" rx="1"/>
  <rect x="61" y="12" width="1.5" height="1.5" rx="0.5" opacity="0.5" fill="#fff"/>
  <!-- Seabed hint -->
  <path d="M0 58c8 2 16 0 24 2s16 0 24 2 8-1 16 0" fill="none" stroke="currentColor" stroke-width="1" opacity="0.15"/>
</svg>
