<svg xmlns="http://www.w3.org/2000/svg" viewBox="0 0 64 64" fill="currentColor">
  <!-- Megalopolis: Massive skyline, multiple skyscrapers, antenna -->
  <rect x="0" y="38" width="5" height="14" rx="0.5"/>
  <rect x="6" y="30" width="5" height="22" rx="0.5"/>
  <rect x="12" y="22" width="6" height="30" rx="1"/>
  <rect x="14" y="16" width="2" height="6"/>
  <rect x="19" y="12" width="7" height="40" rx="1"/>
  <rect x="21" y="6" width="3" height="6"/>
  <rect x="22" y="2" width="1" height="4"/>
  <rect x="27" y="18" width="5" height="34" rx="1"/>
  <rect x="33" y="8" width="8" height="44" rx="1"/>
  <rect x="36" y="2" width="2" height="6"/>
  <rect x="36.5" y="0" width="1" height="2"/>
  <rect x="42" y="16" width="6" height="36" rx="1"/>
  <rect x="44" y="10" width="2" height="6"/>
  <rect x="49" y="24" width="5" height="28" rx="1"/>
  <rect x="55" y="14" width="6" height="38" rx="1"/>
  <rect x="57" y="8" width="2" height="6"/>
  <rect x="57.5" y="5" width="1" height="3"/>
  <rect x="62" y="34" width="2" height="18" rx="0.5"/>
  <!-- Dense window grid -->
  <rect x="13" y="26" width="1.5" height="1.2" fill="rgba(0,0,0,0.3)" rx="0.2"/>
  <rect x="13" y="30" width="1.5" height="1.2" fill="rgba(0,0,0,0.3)" rx="0.2"/>
  <rect x="13" y="34" width="1.5" height="1.2" fill="rgba(0,0,0,0.3)" rx="0.2"/>
  <rect x="13" y="38" width="1.5" height="1.2" fill="rgba(0,0,0,0.3)" rx="0.2"/>
  <rect x="16" y="26" width="1.5" height="1.2" fill="rgba(0,0,0,0.3)" rx="0.2"/>
  <rect x="16" y="30" width="1.5" height="1.2" fill="rgba(0,0,0,0.3)" rx="0.2"/>
  <rect x="20" y="16" width="1.5" height="1.2" fill="rgba(0,0,0,0.3)" rx="0.2"/>
  <rect x="20" y="20" width="1.5" height="1.2" fill="rgba(0,0,0,0.3)" rx="0.2"/>
  <rect x="20" y="24" width="1.5" height="1.2" fill="rgba(0,0,0,0.3)" rx="0.2"/>
  <rect x="20" y="28" width="1.5" height="1.2" fill="rgba(0,0,0,0.3)" rx="0.2"/>
  <rect x="20" y="32" width="1.5" height="1.2" fill="rgba(0,0,0,0.3)" rx="0.2"/>
  <rect x="20" y="36" width="1.5" height="1.2" fill="rgba(0,0,0,0.3)" rx="0.2"/>
  <rect x="20" y="40" width="1.5" height="1.2" fill="rgba(0,0,0,0.3)" rx="0.2"/>
  <rect x="23" y="16" width="1.5" height="1.2" fill="rgba(0,0,0,0.3)" rx="0.2"/>
  <rect x="23" y="20" width="1.5" height="1.2" fill="rgba(0,0,0,0.3)" rx="0.2"/>
  <rect x="23" y="24" width="1.5" height="1.2" fill="rgba(0,0,0,0.3)" rx="0.2"/>
  <rect x="23" y="28" width="1.5" height="1.2" fill="rgba(0,0,0,0.3)" rx="0.2"/>
  <rect x="34" y="12" width="2" height="1.2" fill="rgba(0,0,0,0.3)" rx="0.2"/>
  <rect x="34" y="16" width="2" height="1.2" fill="rgba(0,0,0,0.3)" rx="0.2"/>
  <rect x="34" y="20" width="2" height="1.2" fill="rgba(0,0,0,0.3)" rx="0.2"/>
  <rect x="34" y="24" width="2" height="1.2" fill="rgba(0,0,0,0.3)" rx="0.2"/>
  <rect x="34" y="28" width="2" height="1.2" fill="rgba(0,0,0,0.3)" rx="0.2"/>
  <rect x="34" y="32" width="2" height="1.2" fill="rgba(0,0,0,0.3)" rx="0.2"/>
  <rect x="34" y="36" width="2" height="1.2" fill="rgba(0,0,0,0.3)" rx="0.2"/>
  <rect x="34" y="40" width="2" height="1.2" fill="rgba(0,0,0,0.3)" rx="0.2"/>
  <rect x="38" y="12" width="2" height="1.2" fill="rgba(0,0,0,0.3)" rx="0.2"/>
  <rect x="38" y="16" width="2" height="1.2" fill="rgba(0,0,0,0.3)" rx="0.2"/>
  <rect x="38" y="20" width="2" height="1.2" fill="rgba(0,0,0,0.3)" rx="0.2"/>
  <rect x="38" y="24" width="2" height="1.2" fill="rgba(0,0,0,0.3)" rx="0.2"/>
  <rect x="38" y="28" width="2" height="1.2" fill="rgba(0,0,0,0.3)" rx="0.2"/>
  <rect x="43" y="20" width="1.5" height="1.2" fill="rgba(0,0,0,0.3)" rx="0.2"/>
  <rect x="43" y="24" width="1.5" height="1.2" fill="rgba(0,0,0,0.3)" rx="0.2"/>
  <rect x="43" y="28" width="1.5" height="1.2" fill="rgba(0,0,0,0.3)" rx="0.2"/>
  <rect x="43" y="32" width="1.5" height="1.2" fill="rgba(0,0,0,0.3)" rx="0.2"/>
  <rect x="46" y="20" width="1.5" height="1.2" fill="rgba(0,0,0,0.3)" rx="0.2"/>
  <rect x="46" y="24" width="1.5" height="1.2" fill="rgba(0,0,0,0.3)" rx="0.2"/>
  <rect x="56" y="18" width="1.5" height="1.2" fill="rgba(0,0,0,0.3)" rx="0.2"/>
  <rect x="56" y="22" width="1.5" height="1.2" fill="rgba(0,0,0,0.3)" rx="0.2"/>
  <rect x="56" y="26" width="1.5" height="1.2" fill="rgba(0,0,0,0.3)" rx="0.2"/>
  <rect x="56" y="30" width="1.5" height="1.2" fill="rgba(0,0,0,0.3)" rx="0.2"/>
  <rect x="56" y="34" width="1.5" height="1.2" fill="rgba(0,0,0,0.3)" rx="0.2"/>
  <rect x="56" y="38" width="1.5" height="1.2" fill="rgba(0,0,0,0.3)" rx="0.2"/>
  <rect x="59" y="18" width="1.5" height="1.2" fill="rgba(0,0,0,0.3)" rx="0.2"/>
  <rect x="59" y="22" width="1.5" height="1.2" fill="rgba(0,0,0,0.3)" rx="0.2"/>
  <rect x="59" y="26" width="1.5" height="1.2" fill="rgba(0,0,0,0.3)" rx="0.2"/>
  <!-- Ground -->
  <rect x="0" y="52" width="64" height="2" rx="1" opacity="0.3"/>
</svg>
