<svg xmlns="http://www.w3.org/2000/svg" viewBox="0 0 64 64" width="100%" height="100%">
    <defs>
        <filter id="neon-glow-mega" x="-50%" y="-50%" width="200%" height="200%">
            <feGaussianBlur stdDeviation="5" result="coloredBlur"/>
            <feMerge>
                <feMergeNode in="coloredBlur"/>
                <feMergeNode in="SourceGraphic"/>
            </feMerge>
        </filter>
        <radialGradient id="mega-grad" cx="50%" cy="50%" r="50%">
            <stop offset="0%" stop-color="#ec4899" stop-opacity="1"/>
            <stop offset="100%" stop-color="#831843" stop-opacity="0.5"/>
        </radialGradient>
        <linearGradient id="grid-grad" x1="0%" y1="0%" x2="100%" y2="100%">
            <stop offset="0%" stop-color="#fbcfe8" stop-opacity="0.8"/>
            <stop offset="100%" stop-color="#f472b6" stop-opacity="0.2"/>
        </linearGradient>
    </defs>
    
    <!-- Mega-Region Borders -->
    <circle cx="32" cy="32" r="30" fill="none" stroke="#fbcfe8" stroke-width="3" stroke-dasharray="10 5" filter="url(#neon-glow-mega)" opacity="0.8"/>
    <rect x="12" y="12" width="40" height="40" fill="none" stroke="#f9a8d4" stroke-width="1.5" transform="rotate(45 32 32)" filter="url(#neon-glow-mega)" opacity="0.6"/>

    <!-- Hyper-Dense Core -->
    <circle cx="32" cy="32" r="26" fill="url(#mega-grad)" filter="url(#neon-glow-mega)"/>
    
    <!-- Arcologies / Nodes -->
    <circle cx="20" cy="20" r="6" fill="#fdf2f8" filter="url(#neon-glow-mega)"/>
    <circle cx="44" cy="20" r="6" fill="#fdf2f8" filter="url(#neon-glow-mega)"/>
    <circle cx="20" cy="44" r="6" fill="#fdf2f8" filter="url(#neon-glow-mega)"/>
    <circle cx="44" cy="44" r="6" fill="#fdf2f8" filter="url(#neon-glow-mega)"/>
    
    <!-- High-Speed Interconnects -->
    <path d="M 20 20 L 44 44 M 20 44 L 44 20" fill="none" stroke="#fbcfe8" stroke-width="3" filter="url(#neon-glow-mega)"/>
    <circle cx="32" cy="32" r="16" fill="none" stroke="#fbcfe8" stroke-width="3" filter="url(#neon-glow-mega)"/>
    
    <!-- The Spire / Core Node -->
    <circle cx="32" cy="32" r="12" fill="#fce7f3" filter="url(#neon-glow-mega)"/>
    <path d="M 32 16 L 36 32 L 32 48 L 28 32 Z" fill="#ec4899" filter="url(#neon-glow-mega)"/>
</svg>
