<svg xmlns="http://www.w3.org/2000/svg" viewBox="0 0 64 64" fill="currentColor">
  <!-- Metropolis: Tall skyscrapers, dense skyline -->
  <rect x="1" y="36" width="6" height="16" rx="1"/>
  <rect x="8" y="28" width="7" height="24" rx="1"/>
  <rect x="16" y="14" width="8" height="38" rx="1"/>
  <rect x="19" y="8" width="2" height="6"/>
  <rect x="25" y="20" width="6" height="32" rx="1"/>
  <rect x="32" y="10" width="9" height="42" rx="1"/>
  <rect x="35" y="4" width="3" height="6"/>
  <rect x="36" y="2" width="1" height="2"/>
  <rect x="42" y="24" width="6" height="28" rx="1"/>
  <rect x="49" y="18" width="7" height="34" rx="1"/>
  <rect x="51" y="12" width="3" height="6"/>
  <rect x="57" y="32" width="5" height="20" rx="1"/>
  <!-- Windows (lit up) -->
  <rect x="9" y="32" width="2" height="1.5" fill="rgba(0,0,0,0.3)" rx="0.2"/>
  <rect x="9" y="36" width="2" height="1.5" fill="rgba(0,0,0,0.3)" rx="0.2"/>
  <rect x="12" y="32" width="2" height="1.5" fill="rgba(0,0,0,0.3)" rx="0.2"/>
  <rect x="12" y="36" width="2" height="1.5" fill="rgba(0,0,0,0.3)" rx="0.2"/>
  <rect x="18" y="18" width="2" height="1.5" fill="rgba(0,0,0,0.3)" rx="0.2"/>
  <rect x="18" y="22" width="2" height="1.5" fill="rgba(0,0,0,0.3)" rx="0.2"/>
  <rect x="18" y="26" width="2" height="1.5" fill="rgba(0,0,0,0.3)" rx="0.2"/>
  <rect x="18" y="30" width="2" height="1.5" fill="rgba(0,0,0,0.3)" rx="0.2"/>
  <rect x="18" y="34" width="2" height="1.5" fill="rgba(0,0,0,0.3)" rx="0.2"/>
  <rect x="18" y="38" width="2" height="1.5" fill="rgba(0,0,0,0.3)" rx="0.2"/>
  <rect x="21" y="18" width="2" height="1.5" fill="rgba(0,0,0,0.3)" rx="0.2"/>
  <rect x="21" y="22" width="2" height="1.5" fill="rgba(0,0,0,0.3)" rx="0.2"/>
  <rect x="21" y="26" width="2" height="1.5" fill="rgba(0,0,0,0.3)" rx="0.2"/>
  <rect x="34" y="14" width="2" height="1.5" fill="rgba(0,0,0,0.3)" rx="0.2"/>
  <rect x="34" y="18" width="2" height="1.5" fill="rgba(0,0,0,0.3)" rx="0.2"/>
  <rect x="34" y="22" width="2" height="1.5" fill="rgba(0,0,0,0.3)" rx="0.2"/>
  <rect x="34" y="26" width="2" height="1.5" fill="rgba(0,0,0,0.3)" rx="0.2"/>
  <rect x="34" y="30" width="2" height="1.5" fill="rgba(0,0,0,0.3)" rx="0.2"/>
  <rect x="34" y="34" width="2" height="1.5" fill="rgba(0,0,0,0.3)" rx="0.2"/>
  <rect x="34" y="38" width="2" height="1.5" fill="rgba(0,0,0,0.3)" rx="0.2"/>
  <rect x="37" y="14" width="2" height="1.5" fill="rgba(0,0,0,0.3)" rx="0.2"/>
  <rect x="37" y="18" width="2" height="1.5" fill="rgba(0,0,0,0.3)" rx="0.2"/>
  <rect x="37" y="22" width="2" height="1.5" fill="rgba(0,0,0,0.3)" rx="0.2"/>
  <rect x="37" y="26" width="2" height="1.5" fill="rgba(0,0,0,0.3)" rx="0.2"/>
  <rect x="50" y="22" width="2" height="1.5" fill="rgba(0,0,0,0.3)" rx="0.2"/>
  <rect x="50" y="26" width="2" height="1.5" fill="rgba(0,0,0,0.3)" rx="0.2"/>
  <rect x="50" y="30" width="2" height="1.5" fill="rgba(0,0,0,0.3)" rx="0.2"/>
  <rect x="50" y="34" width="2" height="1.5" fill="rgba(0,0,0,0.3)" rx="0.2"/>
  <rect x="53" y="22" width="2" height="1.5" fill="rgba(0,0,0,0.3)" rx="0.2"/>
  <rect x="53" y="26" width="2" height="1.5" fill="rgba(0,0,0,0.3)" rx="0.2"/>
  <!-- Ground -->
  <rect x="0" y="52" width="64" height="2" rx="1" opacity="0.3"/>
</svg>
