<svg xmlns="http://www.w3.org/2000/svg" viewBox="0 0 64 64" fill="currentColor">
  <!-- Town: 4-5 buildings, some 2-story, small church spire -->
  <rect x="4" y="36" width="10" height="16" rx="1"/>
  <polygon points="4,36 9,28 14,36"/>
  <rect x="16" y="32" width="10" height="20" rx="1"/>
  <rect x="19" y="26" width="4" height="6"/>
  <rect x="20" y="22" width="2" height="4"/>
  <rect x="28" y="38" width="10" height="14" rx="1"/>
  <polygon points="28,38 33,30 38,38"/>
  <rect x="40" y="34" width="10" height="18" rx="1"/>
  <rect x="52" y="40" width="8" height="12" rx="1"/>
  <polygon points="52,40 56,34 60,40"/>
  <!-- Windows -->
  <rect x="7" y="40" width="2.5" height="2.5" fill="rgba(0,0,0,0.4)" rx="0.3"/>
  <rect x="19" y="36" width="2.5" height="2.5" fill="rgba(0,0,0,0.4)" rx="0.3"/>
  <rect x="19" y="42" width="2.5" height="2.5" fill="rgba(0,0,0,0.4)" rx="0.3"/>
  <rect x="31" y="42" width="2.5" height="2.5" fill="rgba(0,0,0,0.4)" rx="0.3"/>
  <rect x="43" y="38" width="2.5" height="2.5" fill="rgba(0,0,0,0.4)" rx="0.3"/>
  <rect x="43" y="44" width="2.5" height="2.5" fill="rgba(0,0,0,0.4)" rx="0.3"/>
  <!-- Ground -->
  <rect x="2" y="52" width="60" height="2" rx="1" opacity="0.3"/>
</svg>
