<svg xmlns="http://www.w3.org/2000/svg" viewBox="0 0 64 64" fill="currentColor">
  <!-- Lightbulb shape -->
  <path d="M32 6C22 6 14 14 14 24c0 7 4 12 8 16v4h20v-4c4-4 8-9 8-16C50 14 42 6 32 6z" opacity="0.7"/>
  <!-- Filament glow lines -->
  <path d="M28 26Q32 20 36 26" fill="none" stroke="#fff" stroke-width="2" opacity="0.4"/>
  <path d="M26 30Q32 24 38 30" fill="none" stroke="#fff" stroke-width="1.5" opacity="0.3"/>
  <!-- Bulb base -->
  <rect x="22" y="46" width="20" height="3" rx="1.5" opacity="0.6"/>
  <rect x="24" y="50" width="16" height="3" rx="1.5" opacity="0.5"/>
  <rect x="26" y="54" width="12" height="3" rx="1.5" opacity="0.4"/>
  <!-- Rays -->
  <line x1="32" y1="0" x2="32" y2="3" stroke="currentColor" stroke-width="2" opacity="0.3"/>
  <line x1="8" y1="24" x2="11" y2="24" stroke="currentColor" stroke-width="2" opacity="0.3"/>
  <line x1="53" y1="24" x2="56" y2="24" stroke="currentColor" stroke-width="2" opacity="0.3"/>
  <line x1="14" y1="10" x2="16" y2="12" stroke="currentColor" stroke-width="2" opacity="0.25"/>
  <line x1="50" y1="10" x2="48" y2="12" stroke="currentColor" stroke-width="2" opacity="0.25"/>
</svg>
