<svg xmlns="http://www.w3.org/2000/svg" viewBox="0 0 64 64" fill="currentColor">
  <!-- Document body -->
  <path d="M12 4h28l12 12v40a4 4 0 0 1-4 4H12a4 4 0 0 1-4-4V8a4 4 0 0 1 4-4z"/>
  <!-- Page fold -->
  <path d="M40 4v12h12" fill="none" stroke="currentColor" stroke-width="1.5" opacity="0.3"/>
  <path d="M40 4l12 12H44a4 4 0 0 1-4-4V4z" opacity="0.3"/>
  <!-- Text lines -->
  <rect x="14" y="22" width="28" height="2" rx="1" opacity="0.35" fill="#fff"/>
  <rect x="14" y="28" width="28" height="2" rx="1" opacity="0.35" fill="#fff"/>
  <rect x="14" y="34" width="22" height="2" rx="1" opacity="0.35" fill="#fff"/>
  <rect x="14" y="40" width="28" height="2" rx="1" opacity="0.25" fill="#fff"/>
  <!-- Signature line -->
  <line x1="14" y1="52" x2="36" y2="52" stroke="#fff" stroke-width="1.5" opacity="0.3"/>
  <!-- Signature scribble -->
  <path d="M16 50c2-2 4-1 6 0s4 1 6-1 3-2 5 0" fill="none" stroke="#fff" stroke-width="1.5" opacity="0.4"/>
  <!-- Seal / stamp -->
  <circle cx="44" cy="50" r="6" opacity="0.3" fill="#fff"/>
  <circle cx="44" cy="50" r="4" fill="none" stroke="#fff" stroke-width="1" opacity="0.3"/>
</svg>
