<svg xmlns="http://www.w3.org/2000/svg" viewBox="0 0 64 64" fill="currentColor">
  <!-- Top-left panel (tall) -->
  <rect x="4" y="4" width="26" height="32" rx="3"/>
  <rect x="7" y="7" width="20" height="12" rx="1.5" opacity="0.3" fill="#fff"/>
  <!-- Mini chart in top-left -->
  <polyline points="9,16 13,12 17,14 21,10 25,13" fill="none" stroke="#fff" stroke-width="1.5" opacity="0.5"/>
  <rect x="7" y="22" width="20" height="2" rx="1" opacity="0.2" fill="#fff"/>
  <rect x="7" y="26" width="14" height="2" rx="1" opacity="0.15" fill="#fff"/>
  <rect x="7" y="30" width="18" height="2" rx="1" opacity="0.15" fill="#fff"/>
  <!-- Top-right panel (short) -->
  <rect x="34" y="4" width="26" height="18" rx="3"/>
  <rect x="37" y="7" width="8" height="12" rx="1.5" opacity="0.3" fill="#fff"/>
  <rect x="48" y="7" width="9" height="5" rx="1" opacity="0.25" fill="#fff"/>
  <rect x="48" y="14" width="9" height="5" rx="1" opacity="0.2" fill="#fff"/>
  <!-- Bottom-right panel (tall) -->
  <rect x="34" y="26" width="26" height="34" rx="3"/>
  <rect x="37" y="29" width="20" height="14" rx="1.5" opacity="0.25" fill="#fff"/>
  <!-- Bar chart -->
  <rect x="39" y="36" width="4" height="7" rx="0.5" opacity="0.4" fill="#fff"/>
  <rect x="44" y="33" width="4" height="10" rx="0.5" opacity="0.4" fill="#fff"/>
  <rect x="49" y="31" width="4" height="12" rx="0.5" opacity="0.5" fill="#fff"/>
  <rect x="37" y="46" width="20" height="2" rx="1" opacity="0.2" fill="#fff"/>
  <rect x="37" y="50" width="14" height="2" rx="1" opacity="0.15" fill="#fff"/>
  <rect x="37" y="54" width="18" height="2" rx="1" opacity="0.15" fill="#fff"/>
  <!-- Bottom-left panel (short) -->
  <rect x="4" y="40" width="26" height="20" rx="3"/>
  <circle cx="17" cy="50" r="7" fill="none" stroke="#fff" stroke-width="2" opacity="0.3"/>
  <path d="M17 43a7 7 0 0 1 0 14" opacity="0.35" fill="#fff"/>
  <rect x="7" y="43" width="3" height="2" rx="0.5" opacity="0.2" fill="#fff"/>
</svg>
