<svg xmlns="http://www.w3.org/2000/svg" viewBox="0 0 64 64" fill="currentColor">
  <!-- Cell tower base -->
  <rect x="28" y="24" width="8" height="32" rx="1.5"/>
  <!-- Tower crossbars -->
  <rect x="20" y="28" width="24" height="3" rx="1" opacity="0.6"/>
  <rect x="23" y="36" width="18" height="3" rx="1" opacity="0.5"/>
  <!-- Antenna top -->
  <rect x="30" y="8" width="4" height="18" rx="1"/>
  <circle cx="32" cy="6" r="3" opacity="0.7"/>
  <!-- Signal waves -->
  <path d="M18 16a18 18 0 0 1 10-8" fill="none" stroke="currentColor" stroke-width="2" opacity="0.35"/>
  <path d="M46 16a18 18 0 0 0-10-8" fill="none" stroke="currentColor" stroke-width="2" opacity="0.35"/>
  <path d="M14 22a24 24 0 0 1 14-14" fill="none" stroke="currentColor" stroke-width="1.5" opacity="0.2"/>
  <path d="M50 22a24 24 0 0 0-14-14" fill="none" stroke="currentColor" stroke-width="1.5" opacity="0.2"/>
  <!-- Base platform -->
  <rect x="16" y="54" width="32" height="4" rx="2" opacity="0.4"/>
</svg>
