<svg xmlns="http://www.w3.org/2000/svg" viewBox="0 0 64 64" fill="currentColor">
  <!-- Left building -->
  <rect x="6" y="16" width="18" height="40" rx="2" opacity="0.6"/>
  <rect x="9" y="20" width="4" height="4" rx="0.5" opacity="0.3" fill="#fff"/>
  <rect x="16" y="20" width="4" height="4" rx="0.5" opacity="0.3" fill="#fff"/>
  <rect x="9" y="28" width="4" height="4" rx="0.5" opacity="0.25" fill="#fff"/>
  <rect x="16" y="28" width="4" height="4" rx="0.5" opacity="0.25" fill="#fff"/>
  <rect x="9" y="36" width="4" height="4" rx="0.5" opacity="0.2" fill="#fff"/>
  <rect x="16" y="36" width="4" height="4" rx="0.5" opacity="0.2" fill="#fff"/>
  <!-- Right building -->
  <rect x="40" y="22" width="18" height="34" rx="2" opacity="0.6"/>
  <rect x="43" y="26" width="4" height="4" rx="0.5" opacity="0.3" fill="#fff"/>
  <rect x="50" y="26" width="4" height="4" rx="0.5" opacity="0.3" fill="#fff"/>
  <rect x="43" y="34" width="4" height="4" rx="0.5" opacity="0.25" fill="#fff"/>
  <rect x="50" y="34" width="4" height="4" rx="0.5" opacity="0.25" fill="#fff"/>
  <!-- Merge arrows -->
  <path d="M26 32L32 28L38 32" fill="none" stroke="currentColor" stroke-width="3" stroke-linecap="round" opacity="0.7"/>
  <path d="M26 38L32 42L38 38" fill="none" stroke="currentColor" stroke-width="3" stroke-linecap="round" opacity="0.7"/>
  <!-- Base -->
  <rect x="4" y="56" width="56" height="4" rx="2" opacity="0.3"/>
</svg>
