<svg xmlns="http://www.w3.org/2000/svg" viewBox="0 0 64 64" fill="currentColor">
  <!-- Coin stack base -->
  <ellipse cx="32" cy="52" rx="24" ry="8" opacity="0.3"/>
  <ellipse cx="32" cy="48" rx="24" ry="8" opacity="0.4"/>
  <ellipse cx="32" cy="44" rx="24" ry="8" opacity="0.5"/>
  <!-- Top coin -->
  <ellipse cx="32" cy="40" rx="24" ry="8"/>
  <ellipse cx="32" cy="40" rx="20" ry="6" opacity="0.2" fill="#fff"/>
  <!-- Dollar sign -->
  <rect x="30" y="26" width="4" height="28" rx="1" opacity="0.7"/>
  <path d="M22 36c0-4 4-6 10-6s10 2 10 6-4 4-10 5-10 2-10 6 4 6 10 6 10-2 10-6" fill="none" stroke="currentColor" stroke-width="3.5" stroke-linecap="round" opacity="0.4"/>
  <!-- Coin edge detail -->
  <path d="M8 40v4" stroke="currentColor" stroke-width="1" opacity="0.3"/>
  <path d="M56 40v4" stroke="currentColor" stroke-width="1" opacity="0.3"/>
  <path d="M8 44v4" stroke="currentColor" stroke-width="1" opacity="0.25"/>
  <path d="M56 44v4" stroke="currentColor" stroke-width="1" opacity="0.25"/>
</svg>
