<svg xmlns="http://www.w3.org/2000/svg" viewBox="0 0 64 64" fill="currentColor">
  <!-- Flask body -->
  <path d="M22 4h20v20l14 28a4 4 0 0 1-3.5 6H11.5a4 4 0 0 1-3.5-6L22 24V4z"/>
  <!-- Flask neck -->
  <rect x="20" y="2" width="24" height="4" rx="1.5" opacity="0.8"/>
  <!-- Liquid inside -->
  <path d="M18 40l6-10h16l6 10a4 4 0 0 1-3.5 6H21.5a4 4 0 0 1-3.5-6z" opacity="0.3" fill="#fff"/>
  <!-- Bubbles -->
  <circle cx="28" cy="38" r="2" opacity="0.4" fill="#fff"/>
  <circle cx="34" cy="42" r="1.5" opacity="0.3" fill="#fff"/>
  <circle cx="30" cy="44" r="1" opacity="0.25" fill="#fff"/>
  <!-- Measurement marks on neck -->
  <line x1="22" y1="10" x2="26" y2="10" stroke="#fff" stroke-width="1" opacity="0.3"/>
  <line x1="22" y1="16" x2="26" y2="16" stroke="#fff" stroke-width="1" opacity="0.3"/>
  <line x1="22" y1="22" x2="26" y2="22" stroke="#fff" stroke-width="1" opacity="0.3"/>
  <!-- Atom symbol overlay -->
  <ellipse cx="38" cy="16" rx="8" ry="3" fill="none" stroke="currentColor" stroke-width="1" opacity="0.2" transform="rotate(-30 38 16)"/>
  <ellipse cx="38" cy="16" rx="8" ry="3" fill="none" stroke="currentColor" stroke-width="1" opacity="0.2" transform="rotate(30 38 16)"/>
  <circle cx="38" cy="16" r="1.5" opacity="0.4"/>
</svg>
