<svg xmlns="http://www.w3.org/2000/svg" viewBox="0 0 64 64" fill="currentColor">
  <!-- Gear body -->
  <path d="M28 4h8l2 6.5a22 22 0 0 1 5.5 3.2l6.2-2.5 4 6.9-4.2 5a22 22 0 0 1 0 6.8l4.2 5-4 6.9-6.2-2.5a22 22 0 0 1-5.5 3.2L36 44h-8l-2-6.5a22 22 0 0 1-5.5-3.2l-6.2 2.5-4-6.9 4.2-5a22 22 0 0 1 0-6.8l-4.2-5 4-6.9 6.2 2.5A22 22 0 0 1 26 10.5L28 4z"/>
  <!-- Center hole -->
  <circle cx="32" cy="24" r="8" opacity="0.4" fill="#fff"/>
  <circle cx="32" cy="24" r="5"/>
  <!-- Gear tooth highlights -->
  <circle cx="32" cy="24" r="11" fill="none" stroke="#fff" stroke-width="0.5" opacity="0.15"/>
  <!-- Second smaller gear (interlocking) -->
  <g transform="translate(42, 42) scale(0.5)">
    <path d="M28 4h8l2 6.5a22 22 0 0 1 5.5 3.2l6.2-2.5 4 6.9-4.2 5a22 22 0 0 1 0 6.8l4.2 5-4 6.9-6.2-2.5a22 22 0 0 1-5.5 3.2L36 44h-8l-2-6.5a22 22 0 0 1-5.5-3.2l-6.2 2.5-4-6.9 4.2-5a22 22 0 0 1 0-6.8l-4.2-5 4-6.9 6.2 2.5A22 22 0 0 1 26 10.5L28 4z" opacity="0.6"/>
    <circle cx="32" cy="24" r="5" opacity="0.4" fill="#fff"/>
    <circle cx="32" cy="24" r="3"/>
  </g>
</svg>
