<svg xmlns="http://www.w3.org/2000/svg" viewBox="0 0 64 64" fill="currentColor">
  <!-- Triangle body -->
  <path d="M29.2 6a3.2 3.2 0 0 1 5.6 0l25.5 44.2a3.2 3.2 0 0 1-2.8 4.8H6.5a3.2 3.2 0 0 1-2.8-4.8L29.2 6z"/>
  <!-- Inner triangle highlight -->
  <path d="M30.4 14a1.8 1.8 0 0 1 3.2 0l19.5 34a1.8 1.8 0 0 1-1.6 2.7H12.5a1.8 1.8 0 0 1-1.6-2.7L30.4 14z" opacity="0.15" fill="#fff"/>
  <!-- Exclamation mark -->
  <rect x="29" y="20" width="6" height="18" rx="3" fill="#fff" opacity="0.9"/>
  <circle cx="32" cy="44" r="3.5" fill="#fff" opacity="0.9"/>
</svg>
