<svg xmlns="http://www.w3.org/2000/svg" viewBox="0 0 64 64" fill="currentColor">
  <!-- Person 1 (front, larger) -->
  <circle cx="24" cy="16" r="8"/>
  <path d="M6 52a18 18 0 0 1 36 0v4H6v-4z"/>
  <!-- Person 2 (behind right) -->
  <circle cx="44" cy="14" r="6.5" opacity="0.6"/>
  <path d="M32 48a14 14 0 0 1 24 0v4H32v-4z" opacity="0.6"/>
  <!-- Person 3 (behind left, subtle) -->
  <circle cx="12" cy="12" r="5" opacity="0.35"/>
  <path d="M0 44a12 12 0 0 1 22 0v4H0v-4z" opacity="0.35"/>
  <!-- Org chart lines -->
  <line x1="24" y1="28" x2="24" y2="34" stroke="#fff" stroke-width="1" opacity="0.15"/>
  <line x1="12" y1="34" x2="44" y2="34" stroke="#fff" stroke-width="1" opacity="0.1"/>
  <!-- Hard hat detail on front person -->
  <path d="M16 14a8 8 0 0 1 16 0" fill="none" stroke="#fff" stroke-width="1.5" opacity="0.2"/>
</svg>
